<svg xmlns="http://www.w3.org/2000/svg" width="23" height="12" viewBox="0 0 23 12">
  <defs>
    <style>
      .cls-1 {
        fill-rule: evenodd;
        opacity: 0.3;
      }
    </style>
  </defs>
  <path id="Forma_1" data-name="Forma 1" class="cls-1" d="M215.321,717.2h0Zm6.455,0h0Zm-6.455,0h0Zm0,0h0a0.738,0.738,0,0,0-1.027,0l-10.267,10.082-3.8-3.689a0.737,0.737,0,0,0-1.027,0,0.7,0.7,0,0,0,0,1l4.312,4.191a0.744,0.744,0,0,0,1.027,0l10.778-10.583A0.7,0.7,0,0,0,215.321,717.2Zm0,0h0Zm6.455,0h0Zm0,0h0Zm0,0h0a0.738,0.738,0,0,0-1.027,0l-10.267,10.082-0.922-.848a0.737,0.737,0,0,0-1.026,0,0.7,0.7,0,0,0,0,1l1.437,1.349a0.743,0.743,0,0,0,1.026,0l10.779-10.583A0.7,0.7,0,0,0,221.776,717.2Z" transform="translate(-199 -717)"/>
</svg>
