<svg xmlns="http://www.w3.org/2000/svg" width="20" height="20" viewBox="0 0 20 20">
  <defs>
    <style>
      .cls-1 {
        fill-rule: evenodd;
        opacity: 0.3;
      }
    </style>
  </defs>
  <path id="Forma_1" data-name="Forma 1" class="cls-1" d="M215.333,376.333h-18V373H214a0.667,0.667,0,1,0,0-1.333H197.333v-3.334H214A0.667,0.667,0,1,0,214,367H197.333v-3.333h18a0.667,0.667,0,1,0,0-1.334H196.667A0.666,0.666,0,0,0,196,363v14a0.666,0.666,0,0,0,.667.667h18.666A0.667,0.667,0,1,0,215.333,376.333ZM212,359h-2.667a0.667,0.667,0,0,0-.471,1.138L210,361.276v17.057a0.667,0.667,0,1,0,1.333,0V361.276l1.138-1.138A0.666,0.666,0,0,0,212,359Z" transform="translate(-196 -359)"/>
</svg>
