<svg xmlns="http://www.w3.org/2000/svg" width="20" height="25" viewBox="0 0 20 25">
  <defs>
    <style>
      .cls-1 {
        fill-rule: evenodd;
        opacity: 0.3;
      }
    </style>
  </defs>
  <path class="cls-1" d="M204.086,533.193a0.615,0.615,0,0,0-.608-0.619h-4.87a0.619,0.619,0,0,0,0,1.238h4.87A0.615,0.615,0,0,0,204.086,533.193Zm13.306-.619h-4.87a0.619,0.619,0,0,0,0,1.238h4.87A0.619,0.619,0,0,0,217.392,532.574ZM208,529.2a0.615,0.615,0,0,0,.608-0.619v-4.965a0.608,0.608,0,1,0-1.216,0v4.965A0.615,0.615,0,0,0,208,529.2Zm3.195,1.353a0.61,0.61,0,0,0,.43-0.181l3.448-3.515a0.628,0.628,0,0,0,0-.877,0.6,0.6,0,0,0-.86,0l-3.448,3.515a0.628,0.628,0,0,0,0,.877A0.619,0.619,0,0,0,211.2,530.556Zm-6.82-.181a0.6,0.6,0,0,0,.43.181,0.61,0.61,0,0,0,.43-0.181,0.628,0.628,0,0,0,0-.877l-3.448-3.515a0.6,0.6,0,0,0-.86,0,0.628,0.628,0,0,0,0,.877ZM215.3,537.1a2.5,2.5,0,0,0-1.635-.625h-3.479v-2.5a3.042,3.042,0,0,0-1.043-2.59,3.2,3.2,0,0,0-2.643-.336,0.619,0.619,0,0,0-.425.588v3.02a2.8,2.8,0,0,1-1.286,2.322,5.1,5.1,0,0,1-1.4.717l-0.06.016a1.235,1.235,0,0,0-.937-0.429h-2.309a1.266,1.266,0,0,0-1.251,1.275v7.721a1.266,1.266,0,0,0,1.251,1.275h2.319a1.223,1.223,0,0,0,.8-0.3,2.528,2.528,0,0,0,1.782.748h7.256a3.287,3.287,0,0,0,1.863-.516,2.747,2.747,0,0,0,1.129-2l0.937-5.936A2.7,2.7,0,0,0,215.3,537.1Zm-12.86,9.176a0.035,0.035,0,0,1-.036.036h-2.319a0.034,0.034,0,0,1-.035-0.036v-7.721a0.035,0.035,0,0,1,.035-0.036h2.319a0.036,0.036,0,0,1,.036.036v7.721Zm12.531-6.916-0.937,5.946a0.06,0.06,0,0,1,0,.026,1.519,1.519,0,0,1-1.787,1.434h-7.256a1.353,1.353,0,0,1-1.316-1.15c0-.026-0.01-0.052-0.015-0.073v-6.637l0.035-.01c0.01,0,.015,0,0.025,0a6.126,6.126,0,0,0,1.752-.883,4.061,4.061,0,0,0,1.823-3.354v-2.509a1.634,1.634,0,0,1,1.134.233,1.9,1.9,0,0,1,.547,1.589v3.122a0.616,0.616,0,0,0,.608.62h4.086a1.316,1.316,0,0,1,.845.325A1.47,1.47,0,0,1,214.972,539.36Z" transform="translate(-198 -523)"/>
</svg>
